<?xml version="1.0" standalone="no"?>
<!DOCTYPE svg PUBLIC "-//W3C//DTD SVG 20010904//EN"
 "http://www.w3.org/TR/2001/REC-SVG-20010904/DTD/svg10.dtd">
<svg version="1.0" xmlns="http://www.w3.org/2000/svg"
 width="1120.000000pt" height="1120.000000pt" viewBox="0 0 1120.000000 1120.000000"
 preserveAspectRatio="xMidYMid meet">

<g transform="translate(0.000000,1120.000000) scale(0.100000,-0.100000)"
fill="#000000" stroke="none">
<path d="M5501 8045 c-24 -14 -57 -37 -75 -51 -51 -44 -218 -197 -247 -228
-15 -15 -32 -26 -37 -22 -6 3 -14 1 -18 -5 -4 -8 -3 -9 4 -5 7 4 12 5 12 3 0
-8 -182 -182 -189 -180 -3 0 -12 -5 -19 -13 -7 -8 -10 -14 -6 -14 4 0 -11 -16
-32 -36 -21 -19 -50 -45 -63 -57 -13 -12 -31 -22 -40 -22 -9 0 -15 -7 -13 -17
1 -8 -5 -18 -13 -22 -11 -4 -14 -2 -9 7 4 6 -11 -8 -34 -33 -71 -77 -88 -177
-45 -267 20 -42 361 -375 375 -366 6 3 8 2 5 -4 -3 -5 13 -27 35 -49 23 -21
37 -32 30 -23 -6 9 -8 20 -4 24 4 5 2 5 -4 2 -6 -4 -20 3 -30 15 -19 21 -19
21 2 10 17 -9 26 -6 55 19 19 16 39 27 46 25 6 -3 13 -1 15 4 2 5 22 12 44 16
37 5 43 4 49 -15 3 -12 10 -19 15 -16 5 3 11 1 15 -5 13 -20 80 -41 113 -35
33 6 46 28 15 24 -18 -2 -40 4 -80 23 -11 6 -27 7 -34 3 -7 -5 -10 -4 -5 3 8
13 -33 44 -47 35 -6 -3 -7 -2 -4 4 3 5 -2 27 -13 49 -12 26 -20 67 -22 124
l-3 85 85 3 c47 2 101 -1 120 -7 45 -13 85 -55 98 -101 8 -26 10 16 11 167 1
122 5 204 11 208 5 3 17 2 26 -3 16 -9 17 -51 16 -487 -2 -369 1 -482 11 -493
10 -13 9 -14 -2 -7 -11 6 -13 4 -8 -9 4 -10 7 -20 7 -22 0 -2 10 -4 23 -3 12
0 16 3 9 6 -10 4 -10 8 -1 19 8 10 8 14 0 14 -6 0 -11 5 -11 11 0 5 5 7 10 4
6 -3 11 4 11 17 1 13 2 48 4 78 1 30 8 84 15 120 7 36 13 72 14 80 3 29 15 37
46 32 17 -2 63 6 103 19 71 23 105 48 152 113 11 15 28 37 38 48 9 12 17 25
17 30 0 4 7 8 15 8 8 0 15 4 15 9 0 10 31 18 95 26 58 7 99 16 110 25 19 14
60 19 75 10 13 -9 13 -11 0 -21 -13 -9 -13 -10 0 -6 8 2 14 14 13 25 -2 15 5
22 27 27 65 14 125 142 109 231 -16 84 -11 79 -479 540 -172 170 -302 290
-327 303 -60 30 -144 29 -202 -4z m-1 -391 c47 -27 67 -67 75 -146 9 -80 -4
-90 -33 -25 -11 24 -33 54 -50 65 -43 31 -44 27 -6 -13 58 -62 58 -157 0 -163
-75 -9 -154 37 -182 105 -16 38 -30 164 -20 188 9 26 168 17 216 -11z m395 14
c11 -10 -13 -175 -30 -207 -25 -50 -79 -84 -140 -89 -49 -4 -54 -2 -70 22 -15
23 -16 33 -7 65 7 20 25 51 42 67 36 35 39 50 5 28 -13 -9 -39 -39 -57 -67
l-33 -52 -3 74 c-3 89 10 113 79 149 37 20 56 23 126 20 45 -2 84 -6 88 -10z
m35 -660 c-2 -142 -35 -225 -109 -266 -52 -30 -126 -30 -141 -1 -16 28 -4 76
32 129 28 41 29 43 5 20 -14 -14 -34 -40 -44 -59 -10 -18 -23 -33 -28 -32 -20
2 -17 109 4 156 30 69 65 85 184 85 l97 0 0 -32z m510 13 c-5 -11 -15 -23 -22
-27 -7 -5 -8 -2 -3 7 21 37 44 55 25 20z"/>
<path d="M6612 7178 c1 -152 4 -147 -430 -580 -439 -437 -433 -433 -589 -433
-51 0 -93 -1 -93 -3 0 -2 24 -14 53 -28 46 -22 48 -25 20 -21 -44 5 -42 -10 2
-19 65 -12 167 0 218 26 57 28 216 178 547 513 145 146 257 268 274 298 36 63
45 133 29 233 -17 112 -32 118 -31 14z"/>
<path d="M6658 7204 c-3 -3 -2 -22 3 -42 5 -20 9 -71 9 -113 0 -120 -18 -147
-271 -404 -338 -344 -359 -367 -354 -375 3 -4 -1 -7 -8 -6 -8 0 -49 -32 -92
-72 -80 -76 -165 -132 -200 -132 -16 0 -17 -2 -6 -9 11 -7 6 -11 -20 -14 l-34
-4 37 -1 c20 -1 40 3 43 8 3 6 13 10 21 10 9 0 12 -5 8 -12 -5 -7 -2 -9 9 -5
8 3 33 9 54 13 37 7 96 31 138 57 43 27 81 52 93 64 7 7 17 13 20 13 4 0 25
18 47 40 22 21 46 39 53 40 6 0 12 7 12 15 0 9 7 18 16 22 9 3 56 45 105 92
48 47 93 91 99 96 31 29 230 237 262 273 54 63 67 128 45 239 -9 47 -30 114
-46 149 -30 64 -33 69 -43 58z"/>
<path d="M6326 6934 c-5 -14 -4 -15 9 -4 17 14 19 20 6 20 -5 0 -12 -7 -15
-16z"/>
<path d="M5457 6887 c18 -20 38 -55 44 -77 11 -35 39 -57 39 -30 0 18 -67 111
-91 128 -19 12 -17 8 8 -21z"/>
<path d="M5160 6605 c13 -14 26 -25 28 -25 3 0 -5 11 -18 25 -13 14 -26 25
-28 25 -3 0 5 -11 18 -25z"/>
<path d="M2160 5517 l0 -57 104 0 103 0 7 -52 c3 -29 6 -173 6 -320 l0 -268
55 0 55 0 0 315 0 315 115 0 115 0 0 55 0 55 -128 0 c-71 0 -197 3 -280 7
l-152 6 0 -56z"/>
<path d="M3647 5546 c-108 -45 -179 -126 -213 -242 -37 -128 3 -275 104 -382
123 -132 337 -147 479 -33 18 14 33 30 33 35 0 5 -16 24 -35 43 l-35 34 -29
-21 c-77 -54 -184 -65 -267 -26 -155 72 -195 300 -75 429 73 79 192 95 293 40
l57 -30 36 37 c22 23 33 42 30 52 -4 9 -34 31 -68 49 -56 30 -72 34 -157 36
-83 3 -102 1 -153 -21z"/>
<path d="M4200 5200 l0 -370 61 0 60 0 -3 149 -3 148 125 7 c69 3 153 6 187 6
l62 0 3 -157 3 -158 58 -3 57 -3 -2 373 -3 373 -57 0 -58 0 0 -157 c0 -86 -4
-159 -9 -162 -5 -3 -88 -3 -184 1 l-177 6 -2 156 -3 156 -57 3 -58 3 0 -371z"/>
<path d="M5250 5192 l0 -374 198 4 c184 3 200 5 245 27 127 62 144 247 30 327
l-38 27 31 33 c69 72 65 203 -8 271 -51 48 -91 56 -280 57 l-178 1 0 -373z
m354 245 c40 -27 52 -59 38 -105 -20 -66 -38 -75 -162 -80 l-110 -5 0 100 c0
55 3 103 6 106 4 4 51 5 104 4 72 -2 104 -7 124 -20z m14 -306 c31 -16 62 -69
62 -104 0 -75 -46 -97 -200 -97 l-110 0 0 111 0 112 113 -5 c62 -2 122 -10
135 -17z"/>
<path d="M5960 5200 l0 -367 46 -7 c26 -3 134 -6 240 -6 l194 0 0 55 0 55
-180 0 -180 0 -2 318 -3 317 -57 1 -58 1 0 -367z"/>
<path d="M6741 5554 c-61 -22 -110 -54 -153 -102 -140 -155 -121 -399 42 -545
60 -54 100 -74 177 -88 162 -30 317 53 392 211 23 48 26 68 26 155 0 93 -2
105 -33 167 -41 83 -126 164 -206 196 -68 26 -178 29 -245 6z m224 -123 c193
-86 191 -388 -2 -485 -50 -25 -139 -21 -201 10 -95 47 -146 134 -146 250 0 56
5 81 24 119 61 117 198 162 325 106z"/>
<path d="M6782 5331 c-11 -7 -11 -9 2 -14 10 -4 16 -1 16 8 0 17 -1 17 -18 6z"/>
<path d="M6734 5282 c-19 -12 -35 -50 -24 -57 5 -3 10 3 10 15 0 12 4 19 9 16
5 -3 11 3 14 14 6 23 6 22 -9 12z"/>
<path d="M7543 5541 c-77 -37 -144 -106 -186 -191 -29 -58 -32 -73 -32 -155 0
-80 3 -97 32 -157 62 -132 179 -217 309 -226 295 -19 481 282 343 556 -64 125
-175 194 -319 200 -77 3 -91 0 -147 -27z m246 -110 c46 -24 108 -91 128 -140
20 -47 21 -165 1 -212 -22 -51 -72 -105 -122 -128 -57 -28 -152 -28 -207 -1
-195 100 -195 377 0 480 49 26 149 26 200 1z"/>
<path d="M7603 5350 c-43 -31 -108 -134 -96 -153 3 -6 6 -29 5 -51 0 -23 2
-34 5 -26 4 8 12 21 20 29 8 7 17 26 20 42 3 15 15 38 27 51 11 12 19 24 17
26 -1 2 16 24 39 49 32 35 39 48 28 54 -18 12 -18 12 -65 -21z"/>
<path d="M2830 5196 l0 -363 31 -7 c17 -3 132 -6 255 -6 l224 0 0 55 0 55
-195 0 -195 0 0 105 0 105 160 0 160 0 0 55 0 55 -160 0 -160 0 0 100 0 100
190 0 190 0 0 55 0 55 -250 0 -250 0 0 -364z"/>
<path d="M8200 5195 l0 -365 45 -1 c25 -1 51 -2 57 -3 7 -1 16 13 20 29 5 24
6 21 5 -16 0 -28 6 -57 15 -70 13 -21 19 -23 44 -14 28 10 29 12 32 90 2 44
-2 105 -8 135 -30 143 -53 184 -65 113 -17 -100 -23 -81 -24 71 l-1 159 89
-139 c93 -144 149 -217 182 -234 20 -11 33 5 96 120 16 30 54 100 84 154 l54
99 6 -204 c3 -112 7 -223 8 -246 1 -43 1 -43 39 -43 55 0 82 -10 82 -30 0 -20
31 -50 52 -50 8 0 23 9 32 19 16 17 17 45 13 292 -2 151 -6 284 -9 295 -16 54
-58 87 -58 45 0 -10 -7 -24 -15 -31 -13 -11 -15 0 -15 89 l0 101 -67 0 -68 -1
-90 -166 c-49 -91 -101 -190 -114 -219 -26 -58 -36 -65 -46 -35 -3 10 -23 45
-44 78 -20 32 -74 122 -120 201 l-83 142 -64 0 -64 0 0 -365z m127 -267 c-3
-7 -5 -2 -5 12 0 14 2 19 5 13 2 -7 2 -19 0 -25z m640 -45 c-2 -16 -4 -3 -4
27 0 30 2 43 4 28 2 -16 2 -40 0 -55z"/>
<path d="M8811 5134 c0 -11 3 -14 6 -6 3 7 2 16 -1 19 -3 4 -6 -2 -5 -13z"/>
<path d="M8791 5123 c-1 -13 -60 -105 -73 -114 -5 -3 -5 -14 -1 -25 6 -16 4
-17 -8 -7 -13 11 -15 8 -11 -17 2 -17 8 -30 12 -30 13 0 70 76 70 94 0 9 4 16
9 16 5 0 7 9 4 20 -4 14 0 20 11 20 9 0 16 8 16 18 0 14 -2 14 -9 3 -7 -11
-10 -9 -14 10 -2 13 -5 19 -6 12z"/>
<path d="M7231 4968 c-13 -26 -35 -55 -48 -63 -12 -9 -23 -22 -23 -30 0 -8
-11 -22 -25 -31 -14 -9 -22 -20 -19 -25 3 -5 -3 -6 -12 -2 -10 3 -15 2 -12 -3
4 -5 -12 -18 -35 -29 -59 -29 -17 -32 56 -5 51 19 79 43 138 118 15 18 22 74
12 98 -7 18 -11 15 -32 -28z"/>
<path d="M8080 5002 c0 -13 -3 -21 -7 -19 -5 3 -24 -19 -43 -49 -22 -34 -37
-49 -42 -41 -5 8 -8 7 -8 -3 0 -25 -70 -84 -133 -113 -32 -15 -62 -27 -67 -27
-6 0 -10 -5 -10 -11 0 -20 122 -4 176 22 107 52 185 186 144 249 -8 12 -10 10
-10 -8z"/>
<path d="M7900 4830 c-9 -6 -10 -10 -3 -10 6 0 15 5 18 10 8 12 4 12 -15 0z"/>
<path d="M4652 4392 c-135 -48 -212 -172 -199 -317 25 -262 320 -390 496 -215
45 45 51 67 51 171 l0 90 -112 -3 -113 -3 -3 -47 -3 -48 56 0 c61 0 72 -10 61
-55 -13 -52 -110 -86 -187 -65 -130 35 -188 240 -96 338 62 67 165 81 256 36
l53 -27 34 36 34 36 -32 24 c-88 66 -197 84 -296 49z"/>
<path d="M6664 4401 c-60 -15 -124 -53 -158 -93 -61 -70 -71 -102 -71 -213 0
-116 14 -152 87 -225 54 -54 114 -81 192 -87 77 -7 134 9 188 50 54 42 59 68
18 97 l-32 23 -60 -32 c-36 -18 -76 -31 -97 -31 -71 1 -156 59 -180 123 -6 16
-11 56 -11 91 0 76 32 132 94 167 69 39 183 26 225 -25 12 -14 18 -12 57 15
24 16 44 34 44 39 0 14 -62 62 -107 82 -47 21 -144 31 -189 19z"/>
<path d="M4026 4373 c-43 -86 -236 -554 -236 -574 0 -5 24 -9 53 -9 l52 0 26
68 26 67 132 3 132 3 32 -70 31 -69 49 -6 c26 -4 52 -4 57 -1 14 9 -22 95
-220 523 l-43 92 -38 0 c-32 0 -41 -5 -53 -27z m102 -245 c23 -51 42 -95 42
-98 0 -3 -38 -4 -84 -2 l-83 3 35 95 c19 52 38 94 42 94 3 0 25 -42 48 -92z"/>
<path d="M5180 4096 l0 -303 77 -7 c85 -7 357 -8 364 -2 2 3 3 25 1 49 l-4 45
-164 7 -165 7 3 72 3 71 130 1 130 0 -4 45 c-1 24 -4 45 -5 46 -1 1 -58 3
-126 5 l-125 3 0 85 0 85 158 -4 157 -3 0 51 0 51 -215 0 -215 0 0 -304z"/>
<path d="M5770 4095 l0 -305 24 0 c13 0 36 -3 52 -6 l29 -5 0 210 c0 116 0
211 1 211 0 0 32 -44 70 -97 37 -54 98 -136 134 -183 37 -47 71 -94 77 -105 7
-12 30 -24 63 -31 l51 -11 -3 311 -3 311 -53 3 -53 3 3 -205 c2 -114 1 -206
-2 -206 -7 0 -111 148 -207 294 l-76 116 -54 0 -53 0 0 -305z"/>
<path d="M7031 4378 c21 -41 159 -278 177 -305 13 -21 18 -56 22 -152 l5 -126
53 -5 c29 -3 55 -4 58 -1 2 2 4 59 4 127 l0 122 106 173 c58 96 108 177 111
182 2 4 -24 7 -59 7 l-63 0 -74 -130 c-40 -72 -74 -130 -76 -130 -1 0 -35 58
-76 130 l-74 130 -63 0 c-62 0 -63 0 -51 -22z"/>
<path d="M7558 4250 c-21 -24 -38 -50 -38 -57 0 -8 -5 -11 -11 -7 -7 4 -10 1
-7 -7 2 -7 -6 -25 -18 -38 -13 -14 -28 -38 -35 -53 -6 -15 -15 -28 -20 -28 -5
0 -9 -4 -9 -10 0 -5 -9 -19 -19 -29 -13 -13 -21 -40 -26 -88 -3 -37 -10 -89
-14 -115 -5 -26 -4 -45 0 -42 5 3 9 0 9 -5 0 -6 11 -11 24 -11 29 0 42 30 50
114 6 54 40 140 70 176 7 8 29 50 50 92 27 56 36 87 34 115 l-3 37 -37 -44z"/>
<path d="M6694 4210 c-32 -13 -84 -78 -84 -105 0 -30 26 -34 35 -5 8 27 75
100 91 100 7 0 16 5 19 10 7 12 -31 12 -61 0z"/>
<path d="M6305 3938 c4 -75 3 -118 -3 -118 -6 0 -8 -9 -5 -20 3 -11 10 -20 17
-20 6 0 4 -5 -4 -10 -8 -5 -10 -10 -4 -10 18 0 34 25 39 60 6 49 -16 197 -32
217 -12 16 -13 3 -8 -99z"/>
<path d="M5907 3833 c-2 -33 0 -62 5 -68 7 -7 8 -2 3 13 -5 16 -3 22 7 20 12
-3 12 3 1 45 -3 9 0 17 6 17 6 0 11 7 11 15 0 8 -6 15 -14 15 -9 0 -15 -18
-19 -57z"/>
<path d="M6955 3771 c-3 -5 -1 -12 5 -16 5 -3 10 1 10 9 0 18 -6 21 -15 7z"/>
<path d="M6898 3743 c-10 -2 -18 -9 -18 -14 0 -14 34 -11 56 6 19 14 19 14 -1
14 -11 -1 -28 -3 -37 -6z"/>
<path d="M6990 3267 c0 -173 0 -175 23 -181 12 -3 25 -6 30 -6 4 0 6 80 5 178
l-3 177 -27 3 -28 3 0 -174z"/>
<path d="M8388 3268 c-2 -107 1 -176 7 -180 6 -4 20 -8 33 -8 21 0 22 3 22 99
0 91 2 100 20 106 11 3 29 4 40 0 17 -5 20 -17 22 -103 3 -94 4 -97 26 -95 12
2 22 -3 22 -10 0 -9 2 -9 8 0 4 6 5 59 2 118 -5 99 -7 109 -30 127 -19 15 -35
19 -67 15 l-43 -5 0 54 c0 53 0 54 -30 54 l-29 0 -3 -172z"/>
<path d="M6166 3404 c-8 -20 11 -44 34 -44 20 0 32 23 24 45 -8 20 -50 19 -58
-1z"/>
<path d="M6502 3393 c2 -22 8 -28 28 -28 20 0 25 5 25 25 0 20 -6 26 -28 28
-26 3 -28 1 -25 -25z"/>
<path d="M7273 3391 c-59 -27 -87 -85 -80 -160 6 -58 25 -91 71 -125 22 -17
42 -21 97 -20 50 0 73 4 80 15 5 8 8 48 7 89 l-3 75 -51 3 c-45 3 -52 0 -57
-18 -4 -17 0 -20 25 -20 28 0 29 -1 26 -42 -3 -41 -4 -43 -39 -46 -59 -5 -82
22 -87 101 -4 60 -2 68 21 91 28 28 61 33 101 14 22 -9 29 -8 46 7 l21 19 -23
12 c-45 24 -110 26 -155 5z"/>
<path d="M2598 3280 c-1 -66 -2 -137 -2 -157 -1 -36 1 -38 29 -38 l30 0 3 68
3 67 54 0 c52 0 55 2 55 24 0 22 -4 25 -37 24 -73 -1 -73 -1 -73 42 l0 40 65
0 c63 0 65 1 65 25 0 25 0 25 -95 25 l-95 0 -2 -120z"/>
<path d="M3723 3386 c-28 -20 -39 -71 -23 -101 7 -13 39 -38 72 -55 69 -37 80
-56 49 -82 -28 -22 -43 -23 -88 -2 -26 13 -37 14 -46 5 -18 -18 4 -44 49 -59
102 -34 184 42 142 132 -10 24 -79 66 -105 66 -18 0 -26 39 -13 55 15 18 50
19 85 3 22 -10 28 -9 35 3 15 24 -15 42 -77 47 -42 2 -64 -1 -80 -12z"/>
<path d="M5880 3245 l0 -155 74 0 c59 0 79 4 107 23 45 30 59 60 59 132 0 110
-51 155 -175 155 l-65 0 0 -155z m150 87 c16 -13 23 -32 27 -79 5 -56 4 -63
-20 -87 -18 -18 -37 -26 -62 -26 l-35 0 0 105 0 105 34 0 c19 0 44 -8 56 -18z"/>
<path d="M3954 3376 c-3 -9 -10 -13 -15 -10 -5 3 -12 -3 -16 -13 -4 -10 -13
-23 -21 -29 -17 -12 -8 -34 13 -34 11 0 15 -20 17 -86 3 -79 5 -89 28 -105 19
-14 35 -17 62 -13 33 6 36 9 27 25 -5 11 -15 19 -22 19 -29 1 -39 20 -44 89
l-5 71 31 0 c24 0 31 4 31 20 0 16 -7 20 -30 20 -27 0 -30 3 -28 26 3 30 -18
45 -28 20z"/>
<path d="M5423 3379 c-13 -5 -23 -16 -23 -25 0 -9 -8 -23 -17 -30 -17 -13 -17
-15 0 -28 14 -11 17 -29 17 -93 0 -66 3 -83 19 -97 25 -23 94 -19 99 7 3 12
-3 17 -20 17 -38 0 -48 19 -48 92 l0 68 30 0 c23 0 30 4 30 20 0 15 -8 22 -29
26 -21 5 -31 13 -33 29 -3 19 -7 21 -25 14z"/>
<path d="M6633 3370 c-3 -10 -14 -22 -24 -25 -22 -7 -26 -40 -6 -48 10 -4 16
-34 20 -94 8 -103 25 -126 86 -121 29 2 37 8 39 26 3 16 -2 22 -16 22 -47 0
-52 8 -52 87 l0 75 30 -7 c25 -6 30 -4 30 13 0 14 -9 21 -30 26 -25 5 -30 10
-30 36 0 24 -4 30 -21 30 -12 0 -23 -8 -26 -20z"/>
<path d="M4470 3355 c-5 -14 -14 -25 -20 -25 -5 0 -10 -9 -10 -20 0 -11 5 -20
10 -20 6 0 10 -20 10 -44 0 -130 26 -175 96 -161 48 9 47 42 -1 51 l-35 6 0
75 0 74 28 -3 c22 -2 28 1 30 20 3 19 -1 22 -28 22 -29 0 -32 3 -28 25 4 21 1
25 -19 25 -16 0 -27 -8 -33 -25z"/>
<path d="M8240 3354 c0 -25 -2 -26 -39 -20 -48 7 -53 1 -70 -84 -20 -99 -26
-100 -46 -5 -10 47 -22 88 -27 91 -5 3 -20 3 -33 0 -19 -5 -26 -17 -40 -81 -9
-41 -20 -73 -24 -71 -4 3 -13 31 -20 63 -17 73 -27 93 -50 93 -28 0 -30 -9
-15 -58 8 -26 19 -69 25 -97 5 -27 12 -60 15 -72 3 -18 11 -23 38 -23 l34 0
18 80 c10 44 22 76 26 72 4 -4 13 -38 20 -76 11 -57 17 -70 37 -78 14 -5 30
-7 36 -4 11 4 49 119 60 187 6 34 8 36 31 25 22 -10 24 -17 24 -81 0 -96 14
-119 69 -123 28 -2 47 1 52 10 13 20 11 28 -10 28 -37 0 -51 27 -51 96 l0 64
30 0 c23 0 30 4 30 20 0 16 -7 20 -30 20 -25 0 -30 4 -30 25 0 21 -5 25 -30
25 -26 0 -30 -4 -30 -26z"/>
<path d="M2828 3332 c-15 -3 -18 -17 -20 -88 -4 -172 -6 -159 25 -162 l27 -3
0 68 c0 86 23 137 63 141 18 2 27 9 27 22 0 28 -30 33 -62 10 -17 -12 -25 -15
-22 -6 6 15 -12 24 -38 18z"/>
<path d="M3008 3324 c-83 -44 -75 -198 11 -234 39 -16 97 -2 126 30 26 29 32
117 11 158 -29 56 -94 76 -148 46z m87 -50 c12 -12 15 -31 13 -72 -3 -62 -19
-79 -61 -68 -59 15 -53 156 7 156 13 0 32 -7 41 -16z"/>
<path d="M3288 3324 c-16 -8 -28 -10 -28 -4 0 5 -11 10 -25 10 l-25 0 0 -119
c0 -123 3 -133 43 -123 14 4 17 17 17 92 0 97 10 117 55 106 25 -6 25 -8 25
-107 l0 -100 28 3 c27 3 27 3 32 97 4 75 9 96 23 105 12 8 22 8 35 0 13 -9 18
-30 22 -105 5 -94 5 -94 33 -97 30 -4 30 -6 27 122 -2 79 -13 110 -47 125 -35
16 -57 14 -85 -8 -24 -20 -25 -20 -41 0 -20 23 -52 24 -89 3z"/>
<path d="M4305 3335 c-5 -2 -22 -6 -37 -9 -19 -4 -28 -13 -28 -25 0 -16 7 -19
53 -17 46 1 52 -1 55 -20 2 -17 -4 -23 -29 -28 -65 -13 -108 -62 -94 -107 10
-30 61 -52 93 -41 15 5 42 7 61 4 l33 -5 -4 101 c-2 85 -6 105 -23 121 -20 20
-61 33 -80 26z m45 -160 c0 -36 -44 -56 -68 -31 -16 16 -16 18 7 37 34 28 61
25 61 -6z"/>
<path d="M4638 3311 c-31 -28 -33 -33 -33 -101 0 -66 2 -74 28 -96 21 -18 40
-24 75 -24 71 0 92 9 92 36 0 22 -3 24 -27 17 -46 -12 -87 -5 -105 18 -10 12
-18 25 -18 30 0 5 34 9 75 9 58 0 77 3 81 15 10 26 -6 67 -38 97 -41 38 -87
38 -130 -1z m100 -23 c7 -7 12 -20 12 -30 0 -15 -8 -18 -45 -18 -46 0 -53 7
-35 41 12 21 50 25 68 7z"/>
<path d="M4877 3324 c-31 -17 -42 -49 -34 -103 2 -21 0 -46 -5 -55 -8 -13 -6
-22 6 -34 14 -15 14 -18 -5 -38 -27 -29 -20 -65 17 -85 31 -16 122 -16 153 0
27 15 46 74 31 100 -11 21 -24 26 -99 39 -60 10 -63 28 -6 34 59 7 95 39 95
84 0 18 5 36 10 39 6 3 10 12 10 18 0 18 -138 19 -173 1z m81 -36 c22 -22 14
-58 -14 -68 -34 -13 -54 2 -54 40 0 37 42 54 68 28z m26 -198 c15 -14 -2 -39
-30 -46 -58 -15 -114 35 -62 56 24 9 77 4 92 -10z"/>
<path d="M5060 3335 c0 -4 18 -58 40 -120 22 -62 40 -122 40 -132 0 -25 -26
-48 -63 -57 -40 -9 -28 -30 19 -34 57 -4 75 20 130 183 26 77 49 146 51 153 4
8 -5 12 -23 12 -27 0 -30 -4 -53 -80 -13 -44 -27 -80 -31 -80 -3 0 -15 35 -26
78 -20 74 -21 77 -52 80 -18 2 -32 0 -32 -3z"/>
<path d="M5595 3331 c-70 -29 -94 -161 -39 -215 42 -43 136 -37 174 11 25 31
27 110 5 153 -25 49 -88 72 -140 51z m85 -60 c16 -30 12 -107 -6 -125 -20 -20
-58 -21 -74 -1 -7 8 -15 35 -18 60 -3 35 0 50 13 65 23 26 71 26 85 1z"/>
<path d="M6321 3329 c-46 -18 -64 -66 -41 -109 7 -13 7 -21 0 -25 -13 -8 -13
-58 1 -72 8 -8 5 -19 -11 -41 -19 -25 -20 -32 -9 -50 38 -60 176 -54 210 9 6
12 8 36 4 55 -7 37 -17 42 -100 46 -36 2 -50 7 -50 18 0 10 15 17 48 22 60 8
87 31 87 73 0 17 5 36 10 41 8 8 7 14 -2 21 -18 15 -118 22 -147 12z m79 -44
c7 -9 10 -25 6 -40 -6 -22 -11 -26 -39 -23 -25 2 -33 8 -35 26 -2 13 -1 30 2
38 7 18 50 18 66 -1z m26 -206 c11 -19 -23 -41 -65 -43 -45 -1 -65 12 -55 37
5 13 19 17 59 17 30 0 57 -5 61 -11z"/>
<path d="M6803 3328 c-12 -6 -24 -17 -28 -26 -9 -24 10 -36 34 -22 33 17 76 9
76 -15 0 -14 -14 -24 -53 -40 -30 -11 -58 -28 -63 -38 -19 -33 -6 -70 30 -91
29 -16 38 -18 64 -8 21 8 35 8 41 2 6 -6 18 -10 28 -10 16 0 18 10 18 101 0
98 -1 101 -29 130 -31 31 -76 37 -118 17z m87 -151 c0 -29 -18 -47 -47 -47
-32 0 -32 43 0 58 35 17 47 14 47 -11z"/>
<path d="M7580 3322 c-25 -12 -35 -13 -38 -4 -2 7 -14 12 -26 12 -21 0 -22 -3
-21 -122 l0 -123 25 0 c24 0 25 2 30 86 5 87 19 119 53 119 15 0 30 37 18 44
-4 3 -22 -3 -41 -12z"/>
<path d="M7694 3326 c-17 -8 -39 -24 -48 -37 -18 -26 -22 -103 -7 -142 22 -56
117 -79 169 -40 15 11 33 37 40 59 35 103 -60 201 -154 160z m86 -51 c7 -8 15
-35 17 -59 4 -35 1 -48 -16 -65 -46 -46 -91 -16 -91 59 0 54 18 80 54 80 13 0
29 -7 36 -15z"/>
<path d="M4070 3204 l0 -125 28 3 c27 3 27 4 30 82 3 84 13 102 67 116 11 4
20 14 20 25 0 15 -8 21 -31 23 -25 2 -33 -2 -44 -25 l-14 -28 -4 28 c-3 21 -9
27 -28 27 l-24 0 0 -126z"/>
<path d="M6506 3315 c-3 -9 -6 -64 -6 -121 l0 -104 30 0 31 0 -3 118 c-3 111
-4 117 -24 120 -13 2 -24 -4 -28 -13z"/>
<path d="M6168 3213 c-4 -122 -3 -133 21 -133 40 1 43 12 36 129 -7 107 -8
111 -30 111 -22 0 -23 -3 -27 -107z"/>
<path d="M8639 3137 c-1 -18 -2 -40 -2 -49 0 -10 -4 -18 -8 -18 -5 0 -9 -8 -9
-17 0 -14 2 -15 9 -4 7 11 9 11 14 0 4 -12 7 -11 16 1 28 38 25 102 -4 114
-11 4 -15 -3 -16 -27z"/>
<path d="M7488 3063 c7 -3 16 -2 19 1 4 3 -2 6 -13 5 -11 0 -14 -3 -6 -6z"/>
<path d="M6552 3025 c0 -16 2 -22 5 -12 2 9 2 23 0 30 -3 6 -5 -1 -5 -18z"/>
</g>
</svg>
